<?xml version="1.0" standalone="no"?><!DOCTYPE svg PUBLIC "-//W3C//DTD SVG 1.1//EN" "http://www.w3.org/Graphics/SVG/1.1/DTD/svg11.dtd"><svg t="1725514824933" class="icon" viewBox="0 0 1024 1024" version="1.1" xmlns="http://www.w3.org/2000/svg" p-id="3420" xmlns:xlink="http://www.w3.org/1999/xlink" width="200" height="200"><path d="M408.021333 442.026667h480a8.021333 8.021333 0 0 0 7.978667-8.021334V377.984a8.021333 8.021333 0 0 0-8.021333-7.978667H408.021333a8.021333 8.021333 0 0 0-7.978666 7.978667v56.021333c0 4.394667 3.584 7.978667 8.021333 7.978667z m-8.021333 203.946666c0 4.437333 3.584 8.021333 8.021333 8.021334h480a8.021333 8.021333 0 0 0 7.978667-7.978667v-56.021333a8.021333 8.021333 0 0 0-8.021333-7.978667H408.021333a8.021333 8.021333 0 0 0-7.978666 7.978667v56.021333zM904.021333 160H120.021333a8.021333 8.021333 0 0 0-8.021333 8.021333V224c0 4.394667 3.584 8.021333 8.021333 8.021333h784a8.021333 8.021333 0 0 0 7.978667-8.021333V167.978667a8.021333 8.021333 0 0 0-8.021333-7.978667z m0 632.021333H120.021333a8.021333 8.021333 0 0 0-8.021333 7.978667v56.021333c0 4.394667 3.584 7.978667 8.021333 7.978667h784a8.021333 8.021333 0 0 0 7.978667-8.021333V800a8.021333 8.021333 0 0 0-8.021333-8.021333zM115.370667 518.912l156.288 123.093333a8.874667 8.874667 0 0 0 14.378666-6.912v-246.186666c0-7.424-8.490667-11.52-14.378666-6.912l-156.288 123.093333a8.746667 8.746667 0 0 0 0 13.824z" p-id="3421"></path></svg>