<?xml version="1.0" standalone="no"?><!DOCTYPE svg PUBLIC "-//W3C//DTD SVG 1.1//EN" "http://www.w3.org/Graphics/SVG/1.1/DTD/svg11.dtd"><svg t="1725347801960" class="icon" viewBox="0 0 1024 1024" version="1.1" xmlns="http://www.w3.org/2000/svg" p-id="19647" xmlns:xlink="http://www.w3.org/1999/xlink" width="200" height="200"><path d="M836.321882 352.045176c27.994353-10.345412 32.180706-25.810824 32.195765-34.123294 0-8.312471-4.186353-23.792941-32.195765-34.138353L511.608471 163.84c-32.105412-11.866353-86.708706-11.851294-118.784 0L68.096 283.768471c-27.994353 10.345412-32.195765 25.825882-32.180706 34.138353 0 8.312471 4.171294 23.792941 32.180706 34.123294l324.713412 119.943529c16.037647 5.933176 37.135059 9.185882 59.392 9.185882 22.256941 0 43.339294-3.267765 59.376941-9.185882l324.743529-119.928471z m-433.061647 91.693177L78.546824 323.794824c-6.264471-2.319059-9.607529-4.487529-11.279059-5.888 1.671529-1.385412 5.014588-3.568941 11.279059-5.888l324.713411-119.94353c25.148235-9.321412 72.688941-9.321412 97.897412 0l324.713412 119.94353c6.264471 2.319059 9.607529 4.487529 11.279059 5.888-1.671529 1.400471-5.014588 3.568941-11.279059 5.888L501.157647 443.738353c-25.193412 9.306353-72.734118 9.306353-97.897412 0zM365.327059 512.271059L84.359529 403.727059a64.316235 64.316235 0 0 0-22.558117-4.427294C33.837176 399.299765 15.058824 421.767529 15.058824 455.213176v361.923765c0 34.198588 17.618824 77.613176 56.154352 92.129883l280.816942 108.544a64.406588 64.406588 0 0 0 22.588235 4.427294c28.114824 0 47.013647-22.467765 47.013647-55.913412V604.400941c0.015059-34.153412-17.648941-77.568-56.304941-92.129882zM391.529412 966.324706c0 9.637647-2.198588 25.795765-16.896 25.795765-3.538824 0-7.574588-0.843294-11.851294-2.454589L81.950118 881.121882C57.810824 872.041412 45.176471 842.059294 45.176471 817.136941V455.213176c0-9.637647 2.168471-25.795765 16.624941-25.795764 3.523765 0 7.544471 0.843294 11.821176 2.454588l280.96753 108.544c24.244706 9.125647 36.939294 39.107765 36.939294 64V966.324706zM850.507294 399.299765c-7.695059 0-15.555765 1.490824-23.431529 4.442353l-284.777412 108.483764C507.873882 525.206588 481.882353 564.826353 481.882353 604.400941V966.324706c0 33.445647 19.064471 55.913412 47.405176 55.913412a64.602353 64.602353 0 0 0 22.648471-4.427294l288-108.498824c35.674353-13.417412 63.593412-53.910588 63.593412-92.175059V455.213176c0-32.391529-22.287059-55.913412-53.022118-55.913411zM873.411765 817.136941c0 25.690353-20.193882 54.994824-44.092236 64l-288 108.498824c-4.397176 1.656471-8.448 2.499765-12.032 2.499764C514.243765 992.120471 512 975.962353 512 966.324706V604.400941c0-26.789647 18.356706-55.506824 40.990118-64.015059l284.777411-108.483764a36.291765 36.291765 0 0 1 12.754824-2.499765c14.125176 0 22.904471 9.893647 22.904471 25.795765v361.938823zM1001.728 47.405176L870.671059 5.165176a15.104 15.104 0 0 0-18.959059 9.712942l-42.24 131.056941a15.058824 15.058824 0 0 0 21.217882 18.025412l40.07153-20.540236c2.409412 9.968941 3.855059 21.082353 3.855059 35.538824 0 25.163294-8.207059 41.336471-14.185412 53.127529-3.207529 6.294588-5.737412 11.279059-6.565647 16.489412a53.353412 53.353412 0 0 1-0.798118 3.599059c-0.752941 3.087059-1.671529 6.927059-1.671529 11.52 0 18.401882 14.968471 33.355294 33.370353 33.355294 9.456941 0 18.251294-3.794824 24.862117-10.752 40.598588-38.309647 61.184-88.350118 61.184-148.736 0-14.486588-1.099294-29.168941-3.267764-43.745882l36.427294-18.672942c5.421176-2.785882 8.628706-8.553412 8.146823-14.622117a15.028706 15.028706 0 0 0-10.390588-13.116236z m-57.720471 24.621177a15.058824 15.058824 0 0 0-7.936 16.173176 269.101176 269.101176 0 0 1 4.638118 49.362824c0 52.555294-16.971294 94.087529-51.862588 126.945882a33.310118 33.310118 0 0 0-1.039059 1.024c-1.716706 1.897412-6.264471 1.400471-6.279529-1.867294 0-0.978824 0.376471-2.575059 0.843294-4.427294 0.421647-1.761882 0.858353-3.568941 1.189647-5.526588 0.316235-1.295059 2.213647-5.014588 3.734588-8.026353 6.535529-12.860235 17.453176-34.379294 17.453176-66.755765 0-28.762353-5.165176-46.923294-10.736941-62.253176a15.043765 15.043765 0 0 0-21.007059-8.252236l-23.67247 12.137412 26.473412-82.130823 82.115764 26.473411-13.914353 7.122824z" p-id="19648"></path></svg>