<?xml version="1.0" standalone="no"?><!DOCTYPE svg PUBLIC "-//W3C//DTD SVG 1.1//EN" "http://www.w3.org/Graphics/SVG/1.1/DTD/svg11.dtd"><svg t="1725347932242" class="icon" viewBox="0 0 1024 1024" version="1.1" xmlns="http://www.w3.org/2000/svg" p-id="21685" xmlns:xlink="http://www.w3.org/1999/xlink" width="200" height="200"><path d="M930.4 337.3c-22.7-53.7-55.2-101.9-96.6-143.3-41.4-41.4-89.6-73.9-143.3-96.6C634.9 73.9 575.9 62 515.1 62c-60.8 0-119.9 11.9-175.5 35.4-53.7 22.7-101.9 55.2-143.3 96.6-41.4 41.4-73.9 89.6-96.6 143.3-23.5 55.6-35.4 114.6-35.4 175.5 0 50.5 8.3 100.1 24.7 147.4l66.1-22.9c-13.8-39.9-20.8-81.8-20.8-124.5 0-209.9 170.8-380.7 380.7-380.7 209.9 0 380.8 170.8 380.8 380.7 0 41.6-6.7 82.5-19.8 121.5l66.3 22.3c15.6-46.2 23.5-94.7 23.5-143.9 0-60.8-11.9-119.8-35.4-175.4z" p-id="21686"></path><path d="M656.9 422.2c0-76.9-62.6-139.5-139.5-139.5s-139.5 62.6-139.5 139.5 62.6 139.5 139.5 139.5 139.5-62.6 139.5-139.5z m-209 0c0-38.3 31.2-69.5 69.5-69.5s69.5 31.2 69.5 69.5-31.2 69.5-69.5 69.5-69.5-31.2-69.5-69.5zM713.8 627.8c-62-27.2-128.1-40.9-196.4-40.9-69 0-135.7 14-198.2 41.7-60.4 26.7-114.1 64.9-159.5 113.3l-20.3 21.7 18.1 23.6c41.2 53.6 94.8 98 155 128.3 63.2 31.8 131.3 48 202.6 48 71.9 0 140.6-16.4 204.2-48.8 60.7-30.9 114.5-76 155.6-130.4l17.9-23.7-20.5-21.6c-45.3-47.6-98.6-85-158.5-111.2zM515.1 893.5c-109 0-210.3-45.3-282.5-125.4 77.7-71.9 177.7-111.2 284.8-111.2 105.8 0 204.9 38.4 282.2 108.8-72.2 81.6-174.3 127.8-284.5 127.8z" p-id="21687"></path></svg>