<?xml version="1.0" standalone="no"?><!DOCTYPE svg PUBLIC "-//W3C//DTD SVG 1.1//EN" "http://www.w3.org/Graphics/SVG/1.1/DTD/svg11.dtd"><svg t="1725514536855" class="icon" viewBox="0 0 1024 1024" version="1.1" xmlns="http://www.w3.org/2000/svg" p-id="3272" xmlns:xlink="http://www.w3.org/1999/xlink" width="200" height="200"><path d="M408 441.984h480A8 8 0 0 0 896 433.984v-56a8 8 0 0 0-8-8h-480a8 8 0 0 0-8 8v56c0 4.416 3.584 8 8 8z m-8 204.032c0 4.416 3.584 8 8 8h480a8 8 0 0 0 8-8v-56a8 8 0 0 0-8-8h-480a8 8 0 0 0-8 8v56zM904 160H120a8 8 0 0 0-8 8V224c0 4.416 3.584 8 8 8h784a8 8 0 0 0 8-8v-56a8 8 0 0 0-8-8z m0 632H120a8 8 0 0 0-8 8v56c0 4.416 3.584 8 8 8h784a8 8 0 0 0 8-8V800a8 8 0 0 0-8-8z m-761.6-149.888l156.288-123.136a8.832 8.832 0 0 0 0-13.888L142.4 381.888A8.896 8.896 0 0 0 128 388.8v246.272c0 7.424 8.512 11.648 14.4 7.04z" fill="#595959" p-id="3273"></path></svg>